<svg xmlns="http://www.w3.org/2000/svg" width="24" height="24" viewBox="0 0 24 24" fill="none">
  <g clip-path="url(#clip0_1_59)">
    <path d="M12 0.75C7.08751 0.75 2.92501 3.9 1.38751 8.25H22.6125C21.075 3.9 16.9125 0.75 12 0.75Z" fill="#00B5E2"/>
    <path d="M12 23.25C16.9125 23.25 21.075 20.1375 22.6125 15.75H1.38751C2.92501 20.1375 7.08751 23.25 12 23.25Z" fill="#509E2F"/>
    <path d="M1.3875 8.25C0.975 9.4125 0.75 10.6875 0.75 12C0.75 13.3125 0.975 14.5875 1.3875 15.75H22.6125C23.025 14.5875 23.25 13.3125 23.25 12C23.25 10.6875 23.025 9.4125 22.6125 8.25H1.3875Z" fill="#EF3340"/>
    <path d="M11.85 15.075C10.1625 15.075 8.77499 13.6875 8.77499 12C8.77499 10.3125 10.1625 8.92502 11.85 8.92502C12.2625 8.92502 12.6375 9.00002 12.975 9.15002C12.375 8.70002 11.625 8.40002 10.8 8.40002C8.81249 8.40002 7.23749 10.0125 7.23749 12C7.23749 13.9875 8.84999 15.6 10.8 15.6C11.625 15.6 12.375 15.3375 12.975 14.85C12.6375 15 12.2625 15.075 11.85 15.075ZM15.15 12.525L14.325 13.0875L14.85 12.225L13.875 12L14.85 11.775L14.2875 10.95L15.15 11.475L15.375 10.5L15.6 11.475L16.425 10.9125L15.9 11.775L16.875 12L15.9 12.225L16.4625 13.05L15.6 12.525L15.375 13.5L15.15 12.525Z" fill="white"/>
  </g>
  <defs>
    <clipPath id="clip0_1_59">
      <rect width="24" height="24" fill="white"/>
    </clipPath>
  </defs>
</svg>