<svg width="16" height="16" viewBox="0 0 16 16" fill="none" xmlns="http://www.w3.org/2000/svg">
<path d="M16 12.6667V5.33333H0V12.6667C0 13.5507 0.351189 14.3986 0.976311 15.0237C1.60143 15.6488 2.44928 16 3.33333 16H12.6667C13.5507 16 14.3986 15.6488 15.0237 15.0237C15.6488 14.3986 16 13.5507 16 12.6667ZM5.32933 8.33067C5.32933 8.59535 5.22419 8.8492 5.03703 9.03636C4.84986 9.22352 4.59602 9.32867 4.33133 9.32867C4.06665 9.32867 3.8128 9.22352 3.62564 9.03636C3.43848 8.8492 3.33333 8.59535 3.33333 8.33067C3.33333 8.06598 3.43848 7.81214 3.62564 7.62497C3.8128 7.43781 4.06665 7.33267 4.33133 7.33267C4.59602 7.33267 4.84986 7.43781 5.03703 7.62497C5.22419 7.81214 5.32933 8.06598 5.32933 8.33067ZM5.32933 11.664C5.32933 11.9287 5.22419 12.1825 5.03703 12.3697C4.84986 12.5569 4.59602 12.662 4.33133 12.662C4.06665 12.662 3.8128 12.5569 3.62564 12.3697C3.43848 12.1825 3.33333 11.9287 3.33333 11.664C3.33333 11.3993 3.43848 11.1455 3.62564 10.9583C3.8128 10.7711 4.06665 10.666 4.33133 10.666C4.59602 10.666 4.84986 10.7711 5.03703 10.9583C5.22419 11.1455 5.32933 11.3993 5.32933 11.664ZM8.99867 8.33067C8.99867 8.59535 8.89352 8.8492 8.70636 9.03636C8.5192 9.22352 8.26535 9.32867 8.00067 9.32867C7.73598 9.32867 7.48214 9.22352 7.29497 9.03636C7.10781 8.8492 7.00267 8.59535 7.00267 8.33067C7.00267 8.06598 7.10781 7.81214 7.29497 7.62497C7.48214 7.43781 7.73598 7.33267 8.00067 7.33267C8.26535 7.33267 8.5192 7.43781 8.70636 7.62497C8.89352 7.81214 8.99867 8.06598 8.99867 8.33067ZM8.99867 11.664C8.99867 11.9287 8.89352 12.1825 8.70636 12.3697C8.5192 12.5569 8.26535 12.662 8.00067 12.662C7.73598 12.662 7.48214 12.5569 7.29497 12.3697C7.10781 12.1825 7.00267 11.9287 7.00267 11.664C7.00267 11.3993 7.10781 11.1455 7.29497 10.9583C7.48214 10.7711 7.73598 10.666 8.00067 10.666C8.26535 10.666 8.5192 10.7711 8.70636 10.9583C8.89352 11.1455 8.99867 11.3993 8.99867 11.664ZM12.6627 8.33067C12.6627 8.59535 12.5575 8.8492 12.3704 9.03636C12.1832 9.22352 11.9294 9.32867 11.6647 9.32867C11.4 9.32867 11.1461 9.22352 10.959 9.03636C10.7718 8.8492 10.6667 8.59535 10.6667 8.33067C10.6667 8.06598 10.7718 7.81214 10.959 7.62497C11.1461 7.43781 11.4 7.33267 11.6647 7.33267C11.9294 7.33267 12.1832 7.43781 12.3704 7.62497C12.5575 7.81214 12.6627 8.06598 12.6627 8.33067ZM16 3.33333C16 2.44928 15.6488 1.60143 15.0237 0.976311C14.3986 0.351189 13.5507 0 12.6667 0H3.33333C2.44928 0 1.60143 0.351189 0.976311 0.976311C0.351189 1.60143 0 2.44928 0 3.33333V4H16V3.33333Z" fill="#D9DADB"/>
</svg>
