<svg xmlns="http://www.w3.org/2000/svg" width="21" height="20" viewBox="0 0 21 20" fill="none">
  <g clip-path="url(#clip0_4_12)">
    <path d="M7.05533 18.8437V14.5312L3.83658 16.9062C4.74283 17.75 5.83658 18.4062 7.05533 18.8437ZM13.3053 18.8437C14.5241 18.4062 15.6178 17.75 16.5241 16.9062L13.3053 14.5V18.8437ZM1.33658 13.125C1.43033 13.4375 1.55533 13.7187 1.71158 14.0312L2.93033 13.125H1.33658ZM17.4303 13.125L18.6491 14.0312C18.7741 13.75 18.8991 13.4375 19.0241 13.125H17.4303Z" fill="#012169"/>
    <path d="M7.5239 11.875H0.992645C1.0864 12.3125 1.2114 12.7187 1.3364 13.125H2.93015L1.7114 14.0312C1.9614 14.5625 2.24265 15.0312 2.5864 15.5L5.80515 13.125H7.05515V13.75L3.3989 16.4375L3.8364 16.875L7.05515 14.5312V18.8437C7.4614 19 7.86765 19.0937 8.30515 19.1875V11.875H7.5239ZM19.3676 11.875H12.0551V19.1875C12.4926 19.0937 12.8989 18.9687 13.3051 18.8437V14.5312L16.5239 16.875C16.9614 16.4687 17.3364 16.0312 17.7114 15.5625L14.3676 13.125H16.4926L18.3989 14.5312C18.4926 14.375 18.5864 14.1875 18.6489 14.0312L17.4301 13.125H19.0239C19.1489 12.7187 19.2739 12.3125 19.3676 11.875Z" fill="white"/>
    <path d="M2.58658 15.5C2.83658 15.8437 3.08658 16.1562 3.36783 16.4687L7.05533 13.7812V13.1562H5.80533L2.58658 15.5ZM14.3991 13.125L17.7428 15.5625C17.8678 15.4062 17.9616 15.25 18.0866 15.0937C18.1178 15.0625 18.1178 15.0312 18.1491 15.0312C18.2428 14.875 18.3678 14.6875 18.4616 14.5312L16.4928 13.125H14.3991Z" fill="#C8102E"/>
    <path d="M13.3053 1.15623V5.46873L16.5241 3.09373C15.6178 2.24998 14.5241 1.59373 13.3053 1.15623ZM7.05533 1.15623C5.83658 1.59373 4.74283 2.24998 3.83658 3.09373L7.05533 5.49998V1.15623ZM19.0241 6.87498C18.9303 6.56248 18.8053 6.28123 18.6491 5.96873L17.4303 6.87498H19.0241ZM2.93033 6.87498L1.71158 5.96873C1.58658 6.28123 1.46158 6.56248 1.33658 6.87498H2.93033Z" fill="#012169"/>
    <path d="M12.8364 8.12503H19.3364C19.2426 7.68753 19.1176 7.28128 18.9926 6.87503H17.3989L18.6176 5.96878C18.3676 5.43753 18.0864 4.96878 17.7426 4.50003L14.5551 6.87503H13.3051V6.25003L16.9614 3.56253L16.5239 3.12503L13.3051 5.46878V1.15628C12.8989 1.00003 12.4926 0.906277 12.0551 0.812527V8.12503H12.8364ZM0.992645 8.12503H8.30514V0.812527C7.86764 0.906277 7.46139 1.03128 7.05514 1.15628V5.46878L3.8364 3.12503C3.3989 3.53128 3.0239 3.96878 2.6489 4.43753L5.99264 6.87503H3.86765L1.9614 5.46878C1.86765 5.62503 1.7739 5.81253 1.7114 5.96878L2.93015 6.87503H1.3364C1.2114 7.28128 1.0864 7.68753 0.992645 8.12503Z" fill="white"/>
    <path d="M17.774 4.50001C17.524 4.15626 17.274 3.84376 16.9927 3.53126L13.3052 6.21876V6.84376H14.5552L17.774 4.50001ZM5.96146 6.87501L2.64896 4.43751C2.52396 4.59376 2.43021 4.75001 2.30521 4.90626C2.27396 4.93751 2.27396 4.96876 2.24271 4.96876C2.14896 5.12501 2.02396 5.31251 1.93021 5.46876L3.83646 6.87501H5.96146Z" fill="#C8102E"/>
    <path d="M19.3678 8.125H12.0553V0.812496C11.4615 0.687496 10.8365 0.624996 10.1803 0.624996C9.52402 0.624996 8.89902 0.687496 8.30527 0.812496V8.125H0.992767C0.867767 8.71875 0.805267 9.34375 0.805267 10C0.805267 10.6562 0.867767 11.2812 0.992767 11.875H8.30527V19.1875C8.89902 19.3125 9.52402 19.375 10.1803 19.375C10.8365 19.375 11.4615 19.3125 12.0553 19.1875V11.875H19.3678C19.4928 11.2812 19.5553 10.6562 19.5553 10C19.5553 9.34375 19.4928 8.71875 19.3678 8.125Z" fill="#C8102E"/>
  </g>
  <defs>
    <clipPath id="clip0_4_12">
      <rect width="20" height="20" fill="white" transform="translate(0.180328)"/>
    </clipPath>
  </defs>
</svg>