<svg width="94" height="381" viewBox="0 0 94 381" fill="none" xmlns="http://www.w3.org/2000/svg">
<g clip-path="url(#clip0_1181_1885)">
<path fill-rule="evenodd" clip-rule="evenodd" d="M93.7998 -96.3006C93.7998 -96.4663 93.6655 -96.6006 93.4998 -96.6006C93.3341 -96.6006 93.1998 -96.4663 93.1998 -96.3006V8.4588C93.1998 49.9012 59.0708 83.2957 30.61 113.42C12.13 132.98 0.799805 159.366 0.799805 188.399C0.799805 217.432 12.13 243.819 30.61 263.379C59.0708 293.503 93.1998 326.898 93.1998 368.34V473.099C93.1998 473.265 93.3341 473.399 93.4998 473.399C93.6655 473.399 93.7998 473.265 93.7998 473.099V312.665C93.7998 304.101 101.436 297.599 110 297.599C170.309 297.599 219.2 248.709 219.2 188.399C219.2 128.09 170.309 79.1994 110 79.1994C101.436 79.1994 93.7998 72.6981 93.7998 64.1341V-96.3006Z" fill="#1C1C1C"/>
</g>
<defs>
<clipPath id="clip0_1181_1885">
<rect width="92.4" height="381" fill="white" transform="translate(0.799805)"/>
</clipPath>
</defs>
</svg>
