<svg xmlns="http://www.w3.org/2000/svg" width="21" height="20" viewBox="0 0 21 20" fill="none">
  <g clip-path="url(#clip0_4_26)">
    <path d="M10.8376 0.624996C6.77515 0.624996 3.3064 3.25 2.02515 6.875H19.7126C18.4001 3.25 14.9314 0.624996 10.8376 0.624996Z" fill="white"/>
    <path d="M10.8376 19.375C14.9314 19.375 18.4001 16.75 19.6814 13.125H2.02515C3.3064 16.7812 6.77515 19.375 10.8376 19.375Z" fill="#D52B1E"/>
    <path d="M2.02509 6.875C1.68134 7.84375 1.49384 8.90625 1.49384 10C1.49384 11.0937 1.68134 12.1562 2.02509 13.125H19.7126C20.0563 12.1562 20.2438 11.0937 20.2438 10C20.2438 8.90625 20.0563 7.84375 19.7126 6.875H2.02509Z" fill="#0039A6"/>
  </g>
  <defs>
    <clipPath id="clip0_4_26">
      <rect width="20" height="20" fill="white" transform="translate(0.868835)"/>
    </clipPath>
  </defs>
</svg>