<svg xmlns="http://www.w3.org/2000/svg" width="21" height="20" viewBox="0 0 21 20" fill="none">
  <path d="M10.5246 19.375C15.7022 19.375 19.8996 15.1777 19.8996 10C19.8996 4.82233 15.7022 0.624996 10.5246 0.624996C5.3469 0.624996 1.14957 4.82233 1.14957 10C1.14957 15.1777 5.3469 19.375 10.5246 19.375Z" fill="#EF3340"/>
  <path d="M13.4308 12.1875L13.4621 10.5L11.7746 10L13.4621 9.50003L13.4308 7.81253L14.4621 9.15628L16.1496 8.65628L15.1183 10L16.1496 11.3438L14.4621 10.8438L13.4308 12.1875Z" fill="white"/>
  <path d="M10.8996 13.75C8.83707 13.75 7.18082 12.0625 7.18082 10C7.18082 7.9375 8.83707 6.25 10.8996 6.25C11.6808 6.25 12.3996 6.5 13.0246 6.90625C12.1808 5.9375 10.9308 5.3125 9.52457 5.3125C6.96207 5.3125 4.89957 7.40625 4.89957 10C4.89957 12.5937 6.96207 14.6875 9.52457 14.6875C10.9308 14.6875 12.1808 14.0625 13.0246 13.0937C12.4308 13.5 11.7121 13.75 10.8996 13.75Z" fill="white"/>
</svg>