<svg width="50" height="32" viewBox="0 0 50 32" fill="none" xmlns="http://www.w3.org/2000/svg">
<rect width="50" height="32" rx="5" fill="#1534CD"/>
<path d="M39.4812 21.8412L39.1624 20.2465H35.6009L35.0343 21.8299L32.1797 21.8356C34.0142 17.4228 35.3771 14.1554 36.2653 12.0305C36.4977 11.4749 36.9099 11.1914 37.5177 11.1956C37.9823 11.1999 38.7402 11.1999 39.7928 11.197L42 21.837L39.4812 21.8412ZM36.4013 18.0621H38.6978L37.8407 14.0647L36.4013 18.0621ZM18.0045 11.1942L20.8747 11.197L16.4377 21.8427L13.5321 21.8398C12.8014 19.0279 12.0799 16.2136 11.3674 13.397C11.2257 12.8357 10.9452 12.443 10.4055 12.2573C9.60726 11.9906 8.80535 11.7349 8 11.4905L8 11.197H12.5857C13.3791 11.197 13.8423 11.5812 13.9911 12.3693C14.1413 13.1589 14.5181 15.1704 15.1244 18.3995L18.0045 11.1942ZM24.8187 11.197L22.5506 21.8412L19.8178 21.837L22.0817 11.1942L24.8187 11.197ZM30.3578 11C31.1752 11 32.2052 11.2552 32.7973 11.4905L32.3185 13.6961C31.783 13.4807 30.9018 13.1901 30.1609 13.2C29.0842 13.2184 28.4184 13.6706 28.4184 14.1044C28.4184 14.8103 29.5744 15.1661 30.7644 15.9372C32.1216 16.8161 32.3015 17.6057 32.2845 18.4647C32.2661 20.2437 30.7644 22 27.5968 22C26.1518 21.9787 25.6304 21.8582 24.4517 21.4387L24.9504 19.1366C26.1503 19.6384 26.6589 19.7986 27.6846 19.7986C28.6238 19.7986 29.4299 19.4187 29.437 18.7567C29.4427 18.2861 29.1537 18.0522 28.0997 17.471C27.0457 16.8884 25.5667 16.0832 25.5865 14.463C25.6106 12.3906 27.5727 11 30.3578 11Z" fill="white"/>
</svg>
